HIERARCHY
ROOT Hips
{
	OFFSET -3.958830 18.904000 13.208200
	CHANNELS 6 Xposition Yposition Zposition Zrotation Yrotation Xrotation 
	JOINT LHipJoint
	{
		OFFSET 0.000000 0.000000 0.000000
		CHANNELS 3 Zrotation Yrotation Xrotation
		JOINT LeftUpLeg
		{
			OFFSET 1.800000 -1.400000 0.085000
			CHANNELS 3 Zrotation Yrotation Xrotation
			JOINT LeftLeg
			{
				OFFSET 2.215000 -6.000000 0.000000
				CHANNELS 3 Zrotation Yrotation Xrotation
				JOINT LeftFoot
				{
					OFFSET 2.500000 -6.900000 0.000000
					CHANNELS 3 Zrotation Yrotation Xrotation
					JOINT LeftToeBase
					{
						OFFSET 0.200000 -0.500000 1.950000
						CHANNELS 3 Zrotation Yrotation Xrotation
						End Site
						{
							OFFSET 0.000000 0.000000 0.000000
						}
					}
				}
			}
		}
	}
	JOINT RHipJoint
	{
		OFFSET 0.000000 0.000000 0.000000
		CHANNELS 3 Zrotation Yrotation Xrotation
		JOINT RightUpLeg
		{
			OFFSET -1.800000 -1.400000 0.085000
			CHANNELS 3 Zrotation Yrotation Xrotation
			JOINT RightLeg
			{
				OFFSET -2.215000 -6.000000 0.000000
				CHANNELS 3 Zrotation Yrotation Xrotation
				JOINT RightFoot
				{
					OFFSET -2.500000 -6.900000 0.000000
					CHANNELS 3 Zrotation Yrotation Xrotation
					JOINT RightToeBase
					{
						OFFSET -0.200000 -0.500000 1.950000
						CHANNELS 3 Zrotation Yrotation Xrotation
						End Site
						{
							OFFSET 0.000000 0.000000 0.000000
						}
					}
				}
			}
		}
	}
	JOINT LowerBack
	{
		OFFSET 0.000000 0.000000 0.000000
		CHANNELS 3 Zrotation Yrotation Xrotation
		JOINT Spine
		{
			OFFSET -0.087000 1.940000 -0.288900
			CHANNELS 3 Zrotation Yrotation Xrotation
			JOINT Spine1
			{
				OFFSET 0.000000 1.950000 0.060000
				CHANNELS 3 Zrotation Yrotation Xrotation
				JOINT Neck
				{
					OFFSET 0.000000 0.000000 0.000000
					CHANNELS 3 Zrotation Yrotation Xrotation
					JOINT Neck1
					{
						OFFSET 0.000000 1.600000 0.340000
						CHANNELS 3 Zrotation Yrotation Xrotation
						JOINT Head
						{
							OFFSET 0.000000 1.667000 -0.240000
							CHANNELS 3 Zrotation Yrotation Xrotation
							End Site
							{
								OFFSET 0.000000 0.000000 0.000000
							}
						}
					}
				}
				JOINT LeftShoulder
				{
					OFFSET 0.000000 0.000000 0.000000
					CHANNELS 3 Zrotation Yrotation Xrotation
					JOINT LeftArm
					{
						OFFSET 2.700000 1.550000 -0.730000
						CHANNELS 3 Zrotation Yrotation Xrotation
						JOINT LeftForeArm
						{
							OFFSET 5.450000 0.000000 0.000000
							CHANNELS 3 Zrotation Yrotation Xrotation
							JOINT LeftHand
							{
								OFFSET 3.450000 0.000000 0.000000
								CHANNELS 3 Zrotation Yrotation Xrotation
								JOINT LeftHandIndex1
								{
									OFFSET 0.750000 0.000000 0.000000
									CHANNELS 3 Zrotation Yrotation Xrotation
									End Site
									{
										OFFSET 0.000000 0.000000 0.000000
									}
								}
							}
						}
					}
				}
				JOINT RightShoulder
				{
					OFFSET 0.000000 0.000000 0.000000
					CHANNELS 3 Zrotation Yrotation Xrotation
					JOINT RightArm
					{
						OFFSET -2.700000 1.550000 -0.730000
						CHANNELS 3 Zrotation Yrotation Xrotation
						JOINT RightForeArm
						{
							OFFSET -5.450000 0.000000 0.000000
							CHANNELS 3 Zrotation Yrotation Xrotation
							JOINT RightHand
							{
								OFFSET -3.450000 0.000000 0.000000
								CHANNELS 3 Zrotation Yrotation Xrotation
								JOINT RightHandIndex1
								{
									OFFSET -0.750000 0.000000 0.000000
									CHANNELS 3 Zrotation Yrotation Xrotation
									End Site
									{
										OFFSET 0.000000 0.000000 0.000000
									}
								}
							}
						}
					}
				}
			}
		}
	}
}
MOTION
Frames: 13
Frame Time: 0.016667
-1.164250 13.538010 -0.754670 -53.554650 -6.979067 -33.966702 -15.266403 12.046025 3.122132 -6.720331 -3.420366 -30.998716 15.823952 8.604044 76.861806 1.467437 12.957240 0.084904 0.433270 0.181410 0.568470 18.421493 -8.250979 5.342050 -19.012818 19.418188 -26.918545 54.563256 -35.885392 50.030821 -2.931119 -12.736023 0.192856 0.002460 -0.049990 0.203220 -3.685866 -2.105681 -9.271477 10.352036 -0.130426 55.762250 -12.855636 7.241323 16.167838 6.776936 2.017948 -19.835914 0.649386 7.326628 51.876773 6.891150 7.088760 -17.271970 -19.648853 -29.136141 13.014566 -20.383404 5.828232 -1.852080 11.885357 1.832718 -0.676044 -3.664991 2.701047 0.875400 -0.218260 0.380190 -0.001600 5.147856 32.711334 10.393988 15.520000 3.629727 -22.806499 -31.001676 49.098955 -14.721560 1.745722 -1.259011 -0.154230 0.230450 -0.020330 -0.244000 
-1.098710 13.482570 -0.648090 -53.783393 -7.457019 -36.395415 -15.236045 12.016535 3.114934 -5.651067 -3.441725 -32.249431 16.619607 8.020331 77.264796 1.473729 12.966732 0.062595 0.461830 0.210630 0.586940 18.439918 -8.176340 5.414260 -21.069407 18.555717 -25.869364 68.831508 -34.594332 38.530689 -2.790457 -11.706541 0.438514 0.016070 -0.082750 0.201590 -3.768196 -2.111913 -9.312591 12.271637 -1.939014 57.127016 -13.833746 6.468242 15.370740 7.398736 1.201500 -19.565340 -1.222731 8.192006 53.486195 6.692270 6.774000 -16.551690 -22.651197 -28.933552 13.092912 -19.907616 7.385654 -1.807036 12.101275 2.359163 -0.580078 -3.619507 2.749606 0.862290 -0.244370 0.390480 -0.002460 6.986260 33.171897 9.313016 10.368230 4.827234 -23.000823 -36.172039 51.078330 -17.101544 1.833703 -1.221396 -0.129020 0.206270 -0.038970 -0.235360 
-1.074250 13.477540 -0.564660 -51.770139 -7.470718 -39.369517 -15.348920 12.207648 2.988033 -7.196685 -3.014160 -32.716365 19.259822 5.710806 73.870745 1.288346 12.361810 0.214120 0.465390 0.201200 0.561020 18.329025 -7.832533 5.588726 -23.640368 17.624513 -23.564668 85.704576 -30.607074 26.620261 -2.685988 -10.796390 0.678936 0.027510 -0.060580 0.210340 -3.454066 -2.851238 -9.366349 9.545941 -0.022563 59.402501 -11.848134 7.098932 15.273001 7.496432 0.310829 -19.579344 -3.229862 8.754589 53.838288 7.724050 5.888630 -16.402830 -24.253387 -29.151418 13.221301 -20.410698 7.874766 -1.703846 12.431868 2.633937 -0.581078 -3.609856 2.776512 0.880770 -0.244990 0.377660 0.004460 8.569635 35.123172 8.969614 3.154843 5.139440 -22.571336 -39.721170 48.277168 -17.029078 2.024794 -1.296099 -0.142790 0.217000 -0.013850 -0.233030 
-1.071540 13.416830 -0.432250 -48.524570 -8.994006 -40.731568 -15.349587 11.927790 3.028800 -11.379453 -3.107387 -35.319329 23.254022 2.955774 70.654455 1.196502 11.886086 0.375790 0.477570 0.223250 0.532240 18.368239 -7.589561 5.884380 -25.822403 17.430987 -22.901453 98.872867 -27.746583 19.898326 -2.671140 -10.340589 0.841760 0.045580 -0.015120 0.197100 -3.536999 -2.612531 -9.478030 9.069811 1.373068 58.830097 -12.584291 8.282708 14.995716 7.569704 -0.465229 -19.493963 -4.784536 9.460285 55.095154 8.680050 5.130440 -15.621520 -24.741932 -28.448755 13.008581 -21.245025 8.474542 -1.883489 13.191444 1.960323 -0.620703 -3.590386 2.777360 0.876580 -0.236320 0.368280 0.045810 8.956412 35.804101 8.555805 1.235419 7.873488 -22.478958 -46.431171 44.719668 -19.238714 2.246258 -1.322249 -0.153440 0.265770 -0.019850 -0.206200 
-1.086250 13.434410 -0.344970 -44.475554 -8.742626 -43.211455 -15.502323 11.795981 3.168699 -17.211711 -3.555430 -37.202920 30.419048 -1.505306 62.766447 1.039931 10.997954 0.610291 0.520400 0.296710 0.545400 18.274529 -7.116425 6.052538 -27.396463 16.808831 -19.317015 107.561622 -24.278245 15.189995 -2.602165 -9.797121 0.970772 0.085000 -0.045360 0.210180 -3.194007 -3.185956 -9.591992 4.387991 5.283863 59.307077 -10.378431 9.629579 16.232009 7.408259 -1.071200 -19.329287 -5.929379 10.295889 55.687900 8.490580 5.422750 -16.440050 -24.319185 -28.595187 13.405066 -22.625523 8.700345 -2.048519 13.677793 1.479110 -0.651498 -3.553701 2.834229 0.863660 -0.249840 0.394820 0.043450 8.866095 37.922986 8.043123 -1.251618 9.663459 -23.583929 -50.769018 43.011480 -21.011794 2.472552 -1.400096 -0.118600 0.252710 -0.030380 -0.193700 
-1.047620 13.422560 -0.242660 -40.708626 -8.479015 -46.519003 -15.538132 11.767360 3.191984 -21.352410 -3.001725 -37.354661 36.847434 -3.818625 54.905852 0.882387 10.423918 0.742437 0.553280 0.319670 0.575560 18.240118 -6.974971 6.140174 -30.008872 17.168593 -14.772941 112.376998 -24.501804 13.858396 -2.572342 -9.559890 0.998881 0.111150 -0.081890 0.227910 -3.086623 -3.361303 -9.581771 2.178762 7.636050 60.639626 -10.407815 10.525425 17.018513 7.480842 -1.016622 -19.474995 -6.288333 10.704351 58.379390 8.642360 5.021060 -17.963380 -24.976941 -29.494775 14.006614 -21.903165 9.574545 -1.747680 12.860596 1.821910 -0.682098 -3.530476 2.798512 0.923190 -0.278940 0.429600 0.019040 9.196487 39.839705 7.122608 -3.517062 11.222056 -24.837658 -53.896988 43.843400 -22.796616 2.627015 -1.397466 -0.122050 0.257700 -0.011920 -0.215980 
-0.999610 13.420900 -0.164150 -35.982248 -8.804426 -50.105677 -15.610563 12.033783 3.009966 -23.994272 -1.283594 -37.566280 43.481258 -4.525210 47.547371 0.843425 10.094189 0.808879 0.612770 0.391970 0.613360 18.149488 -6.863508 6.181883 -33.346601 19.116951 -11.186261 113.508077 -25.963543 14.682124 -2.575660 -9.546443 0.963408 0.153090 -0.139400 0.235730 -2.826445 -3.848301 -9.481224 -1.109737 11.456474 62.049270 -9.687777 12.386618 18.295873 7.916514 -1.301391 -19.797871 -7.573071 11.039474 59.238092 8.448010 4.205030 -19.410330 -26.315129 -30.727333 14.482772 -20.740138 10.132911 -1.330118 11.815802 2.472639 -0.665202 -3.487114 2.803486 0.930970 -0.317250 0.463220 0.009520 9.414336 43.234541 6.265555 -7.817848 10.601558 -26.901592 -56.071093 44.551865 -23.670785 2.991360 -1.547963 -0.088380 0.238970 -0.031840 -0.214420 
-0.963650 13.365810 -0.055430 -34.676499 -9.314376 -51.583204 -15.587835 11.930695 3.093693 -25.670134 -1.207907 -40.059542 53.580548 -5.681616 39.807668 1.009242 10.394474 0.723640 0.693480 0.491030 0.637890 18.171692 -6.872050 6.141563 -35.125197 19.906299 -8.685727 116.402780 -27.749902 14.294226 -2.587943 -9.473537 0.974393 0.189540 -0.173620 0.273120 -2.892193 -3.662640 -9.492529 0.339877 10.678626 62.496782 -11.198683 12.414857 18.734855 8.877608 -1.899665 -19.447155 -8.740936 11.623582 59.796461 7.527730 3.586790 -20.064580 -27.357885 -30.935020 15.035741 -20.728448 11.310217 -1.244320 11.672480 1.904786 -0.654737 -3.409345 2.894432 0.906570 -0.334250 0.500330 0.047570 8.348295 44.793973 4.298439 -10.049523 13.575153 -27.180690 -57.539406 43.542500 -23.764684 3.049458 -1.557893 -0.020150 0.206110 -0.080540 -0.181010 
-0.980410 13.240770 0.076650 -30.554788 -13.320187 -51.685298 -15.575760 11.678448 3.023522 -26.777823 -1.060557 -47.702843 66.170379 -5.844744 35.053688 1.348151 11.615127 0.384458 0.724500 0.524960 0.592880 18.233853 -6.716460 6.397381 -38.492247 21.877883 -13.405175 120.599954 -28.802994 14.613687 -2.595678 -9.633036 0.958881 0.225270 -0.118630 0.329970 -3.031584 -2.981384 -9.555088 1.605584 11.616359 59.192912 -13.427474 14.888888 20.052894 10.566347 -3.097436 -19.397696 -10.125964 12.266687 57.876874 5.978090 2.750550 -17.244370 -26.613208 -29.761131 14.695569 -22.408806 10.916558 -1.393172 13.108635 1.479765 -0.645723 -3.471863 3.049279 0.806960 -0.262310 0.443900 0.094010 3.911803 46.368040 1.965847 -10.814373 15.633412 -27.998855 -55.665116 41.453398 -22.147758 3.332265 -1.785704 0.022030 0.153570 -0.086180 -0.135310 
-0.988860 13.162980 0.188090 -28.564702 -14.088904 -52.874421 -15.560818 11.298754 3.083130 -27.809351 -1.401011 -51.201022 78.324566 -4.935150 29.991546 1.607963 12.482840 0.184648 0.698720 0.497980 0.578720 18.314812 -6.403379 6.744985 -41.065472 23.134393 -13.002355 124.118962 -24.938415 12.367925 -2.471692 -9.110199 1.125241 0.222510 -0.087110 0.319220 -3.187038 -2.549841 -9.702733 2.740356 11.428672 59.018235 -14.895328 15.696096 19.249020 11.220665 -3.484755 -18.736871 -10.127293 12.868168 59.061826 5.686780 2.964980 -16.692730 -26.133242 -29.592948 15.555063 -24.136117 11.559799 -1.571138 14.206018 1.340522 -0.595692 -3.479416 3.032961 0.813930 -0.243500 0.430110 0.088680 2.007747 47.344803 -0.947821 -12.311053 19.581628 -26.295031 -53.089578 37.428823 -19.043780 3.234909 -1.637313 -0.006980 0.190720 -0.061250 -0.139110 
-0.998480 13.077420 0.350240 -25.262634 -15.098273 -54.438269 -15.592718 10.998204 3.181296 -28.195808 -1.542116 -54.618213 92.099360 -2.260978 24.616601 1.855473 13.186857 0.059087 0.663830 0.438860 0.564320 18.337788 -6.127469 6.942556 -43.744308 24.905454 -13.350756 127.324750 -23.898534 11.746797 -2.385376 -8.857572 1.211975 0.213420 -0.050600 0.306100 -3.187454 -2.281448 -9.805944 2.746452 12.524880 57.701190 -15.259978 17.549358 18.943588 11.769190 -3.826646 -18.365360 -10.240125 13.207511 60.225655 5.693410 2.549130 -14.883290 -25.548614 -28.787356 15.784810 -26.474143 11.614329 -1.862870 15.396977 0.828373 -0.597670 -3.499210 3.039459 0.808300 -0.220680 0.390410 0.078190 0.030545 47.833875 -2.799569 -14.006734 21.372517 -24.704452 -48.953312 35.401453 -16.230929 3.243231 -1.612522 -0.044880 0.209480 -0.032010 -0.150040 
-1.038750 12.998960 0.484760 -25.021406 -14.056155 -53.577835 -15.622942 10.299077 3.659470 -27.274502 -4.468482 -57.678745 104.523423 1.628029 18.429830 2.032042 13.387475 0.092421 0.645730 0.438190 0.528090 18.386032 -5.861376 6.949163 -44.619003 24.576038 -13.154190 130.202742 -22.733785 10.359642 -2.290146 -8.584647 1.316169 0.220320 0.010820 0.314730 -3.234410 -1.791208 -10.056305 3.550454 12.043379 55.166537 -15.376078 18.355279 19.363022 12.408743 -3.810741 -17.294895 -8.217083 12.151118 60.432876 5.293630 2.270670 -13.490200 -23.791950 -27.563292 15.795726 -27.613693 10.140762 -1.879794 16.281092 0.540914 -0.622169 -3.563985 3.064461 0.743060 -0.164840 0.348290 0.093760 -2.959028 46.768910 -5.273527 -12.195372 23.854743 -23.074924 -47.782457 31.793965 -14.830094 3.193384 -1.574114 -0.041180 0.219850 -0.020910 -0.121630 
-1.036400 12.967550 0.585980 -23.277064 -12.670738 -54.964774 -15.691963 10.028371 3.884515 -25.477172 -5.244984 -57.496465 114.032079 4.956631 15.579379 2.132970 13.502346 0.105792 0.652890 0.457690 0.533470 18.353460 -5.616803 6.922153 -45.323784 25.587423 -11.082058 131.134261 -22.187448 10.009605 -2.234906 -8.381392 1.383994 0.228490 0.018750 0.327210 -3.053102 -1.924204 -10.142257 2.002689 13.250211 54.683128 -14.834228 19.414057 19.755439 12.827422 -3.061327 -16.730874 -5.724932 11.107250 61.610175 4.767020 2.456860 -13.589220 -24.227352 -27.219730 15.820884 -27.045694 9.774658 -1.811093 17.093252 0.981756 -0.593959 -3.603825 3.055551 0.732990 -0.143560 0.352910 0.094920 -3.686077 46.562841 -6.373871 -12.781864 24.969678 -22.516245 -47.063254 30.827947 -14.105075 3.169019 -1.546670 -0.032480 0.225160 -0.020230 -0.119690 
